<?xml version="1.0" encoding="UTF-8" standalone="no"?>
<!-- Created with Inkscape (http://www.inkscape.org/) -->

<svg
   xmlns:dc="http://purl.org/dc/elements/1.1/"
   xmlns:cc="http://creativecommons.org/ns#"
   xmlns:rdf="http://www.w3.org/1999/02/22-rdf-syntax-ns#"
   xmlns:svg="http://www.w3.org/2000/svg"
   xmlns="http://www.w3.org/2000/svg"
   xmlns:sodipodi="http://sodipodi.sourceforge.net/DTD/sodipodi-0.dtd"
   xmlns:inkscape="http://www.inkscape.org/namespaces/inkscape"
   width="200"
   height="200"
   id="svg8030"
   version="1.1"
   inkscape:version="0.48.4 r9939"
   sodipodi:docname="clock-numbers.svg">
  <defs
     id="defs8032" />
  <sodipodi:namedview
     id="base"
     pagecolor="#ffffff"
     bordercolor="#666666"
     borderopacity="1.0"
     inkscape:pageopacity="0.0"
     inkscape:pageshadow="2"
     inkscape:zoom="1.4"
     inkscape:cx="73.258929"
     inkscape:cy="94.296933"
     inkscape:document-units="px"
     inkscape:current-layer="layer1"
     showgrid="false"
     inkscape:showpageshadow="false"
     inkscape:window-width="1366"
     inkscape:window-height="705"
     inkscape:window-x="-8"
     inkscape:window-y="-8"
     inkscape:window-maximized="1" />
  <metadata
     id="metadata8035">
    <rdf:RDF>
      <cc:Work
         rdf:about="">
        <dc:format>image/svg+xml</dc:format>
        <dc:type
           rdf:resource="http://purl.org/dc/dcmitype/StillImage" />
        <dc:title />
      </cc:Work>
    </rdf:RDF>
  </metadata>
  <g
     inkscape:label="Layer 1"
     inkscape:groupmode="layer"
     id="layer1"
     transform="translate(0,-852.36218)">
    <g
       id="g12049"
       transform="matrix(0.99355026,0,0,0.99355026,-3.1657063,6.1303809)">
      <g
         transform="scale(0.96791011,1.0331538)"
         style="font-size:18px;font-style:normal;font-variant:normal;font-weight:normal;font-stretch:normal;text-align:start;line-height:125%;letter-spacing:0px;word-spacing:0px;writing-mode:lr-tb;text-anchor:start;fill:#000000;fill-opacity:1;stroke:none;font-family:Arial;-inkscape-font-specification:Arial"
         id="text6963-8">
        <path
           d="m 104.16052,840.87476 -1.58203,0 0,-10.08106 c -0.38086,0.36329 -0.88037,0.72657 -1.49853,1.08984 -0.61817,0.36329 -1.173346,0.63576 -1.665531,0.81739 l 0,-1.5293 c 0.884761,-0.416 1.658201,-0.91991 2.320311,-1.51172 0.66211,-0.59178 1.13086,-1.166 1.40625,-1.72265 l 1.01953,0 z"
           id="path3046"
           inkscape:connector-curvature="0" />
        <path
           d="m 116.53552,839.35425 0,1.52051 -8.5166,0 c -0.0117,-0.38086 0.0498,-0.74707 0.18457,-1.09864 0.2168,-0.58007 0.56396,-1.15136 1.04151,-1.71386 0.47753,-0.5625 1.16747,-1.21289 2.06982,-1.95118 1.40038,-1.14843 2.34667,-2.05809 2.83887,-2.729 0.49218,-0.67089 0.73827,-1.30517 0.73828,-1.90283 -1e-5,-0.62695 -0.22413,-1.15575 -0.67237,-1.58643 -0.44824,-0.43065 -1.03272,-0.64598 -1.75341,-0.64599 -0.76173,10e-6 -1.3711,0.22852 -1.82813,0.68554 -0.45703,0.45704 -0.68848,1.08986 -0.69433,1.89844 l -1.62598,-0.16699 c 0.11133,-1.21288 0.53027,-2.1372 1.25683,-2.77295 0.72656,-0.63573 1.70215,-0.9536 2.92676,-0.95361 1.23632,10e-6 2.21484,0.34278 2.93555,1.02832 0.72069,0.68555 1.08105,1.53516 1.08105,2.54882 0,0.51564 -0.10547,1.02247 -0.3164,1.52051 -0.21095,0.49806 -0.56105,1.02247 -1.05029,1.57324 -0.48927,0.55079 -1.30226,1.30665 -2.43897,2.26758 -0.94922,0.79688 -1.5586,1.33741 -1.82812,1.62158 -0.26954,0.28419 -0.4922,0.56983 -0.66797,0.85694 z"
           id="path3048"
           inkscape:connector-curvature="0" />
      </g>
      <g
         transform="scale(1.0041875,0.99582994)"
         style="font-size:18px;font-style:normal;font-variant:normal;font-weight:normal;font-stretch:normal;text-align:start;line-height:125%;letter-spacing:0px;word-spacing:0px;writing-mode:lr-tb;text-anchor:start;fill:#000000;fill-opacity:1;stroke:none;font-family:Arial;-inkscape-font-specification:Arial"
         id="text6967-8">
        <path
           d="m 150.81921,884.9187 -1.58203,0 0,-10.08105 c -0.38086,0.36329 -0.88037,0.72657 -1.49853,1.08984 -0.61817,0.36329 -1.17334,0.63575 -1.66553,0.81738 l 0,-1.52929 c 0.88476,-0.41601 1.6582,-0.91992 2.32031,-1.51172 0.66211,-0.59179 1.13086,-1.16601 1.40625,-1.72266 l 1.01953,0 z"
           id="path3051"
           inkscape:connector-curvature="0" />
      </g>
      <g
         transform="scale(1.0855032,0.92123174)"
         style="font-size:18px;font-style:normal;font-variant:normal;font-weight:normal;font-stretch:normal;text-align:start;line-height:125%;letter-spacing:0px;word-spacing:0px;writing-mode:lr-tb;text-anchor:start;fill:#000000;fill-opacity:1;stroke:none;font-family:Arial;-inkscape-font-specification:Arial"
         id="text6971-5">
        <path
           d="m 172.41034,991.10547 0,1.52051 -8.5166,0 c -0.0117,-0.38086 0.0498,-0.74707 0.18457,-1.09864 0.21679,-0.58007 0.56396,-1.15136 1.0415,-1.71386 0.47754,-0.5625 1.16748,-1.21289 2.06983,-1.95118 1.40038,-1.14843 2.34667,-2.05809 2.83886,-2.729 0.49218,-0.67089 0.73828,-1.30517 0.73828,-1.90283 0,-0.62694 -0.22412,-1.15575 -0.67236,-1.58643 -0.44825,-0.43065 -1.03272,-0.64598 -1.75342,-0.64599 -0.76172,10e-6 -1.37109,0.22852 -1.82812,0.68554 -0.45704,0.45705 -0.68848,1.08986 -0.69434,1.89844 l -1.62597,-0.16699 c 0.11132,-1.21288 0.53027,-2.1372 1.25683,-2.77295 0.72656,-0.63573 1.70215,-0.9536 2.92676,-0.95361 1.23632,10e-6 2.21484,0.34278 2.93555,1.02832 0.72069,0.68555 1.08104,1.53516 1.08105,2.54882 -1e-5,0.51564 -0.10548,1.02247 -0.31641,1.52051 -0.21094,0.49806 -0.56104,1.02247 -1.05029,1.57324 -0.48926,0.55079 -1.30225,1.30665 -2.43896,2.26758 -0.94923,0.79688 -1.5586,1.33741 -1.82813,1.62159 -0.26953,0.28418 -0.49219,0.56982 -0.66797,0.85693 z"
           id="path3054"
           inkscape:connector-curvature="0" />
      </g>
      <g
         transform="scale(0.99425786,1.0057753)"
         style="font-size:18px;font-style:normal;font-variant:normal;font-weight:normal;font-stretch:normal;text-align:start;line-height:125%;letter-spacing:0px;word-spacing:0px;writing-mode:lr-tb;text-anchor:start;fill:#000000;fill-opacity:1;stroke:none;font-family:Arial;-inkscape-font-specification:Arial"
         id="text6975-8">
        <path
           d="m 191.02994,951.40625 1.58203,-0.21094 c 0.18164,0.89649 0.49072,1.54249 0.92725,1.93799 0.43652,0.39551 0.96825,0.59326 1.59521,0.59326 0.74414,0 1.37255,-0.25781 1.88526,-0.77344 0.51268,-0.51562 0.76903,-1.15429 0.76904,-1.91601 -10e-6,-0.72656 -0.23731,-1.32568 -0.71192,-1.79736 -0.47461,-0.47168 -1.07813,-0.70752 -1.81054,-0.70752 -0.29884,0 -0.67091,0.0586 -1.11621,0.17578 l 0.17578,-1.38867 c 0.10546,0.0117 0.19042,0.0176 0.25488,0.0176 0.67382,10e-6 1.28027,-0.17577 1.81934,-0.52734 0.53905,-0.35155 0.80858,-0.89355 0.80859,-1.62598 -1e-5,-0.58006 -0.1963,-1.06053 -0.58887,-1.4414 -0.39258,-0.38085 -0.89942,-0.57128 -1.5205,-0.57129 -0.61524,10e-6 -1.12794,0.19337 -1.53809,0.58008 -0.41016,0.38673 -0.67383,0.9668 -0.79102,1.74023 l -1.58203,-0.28125 c 0.19336,-1.06054 0.63281,-1.88231 1.31836,-2.46533 0.68555,-0.583 1.53808,-0.8745 2.55762,-0.87451 0.70312,1e-5 1.35058,0.15089 1.94238,0.45263 0.59179,0.30177 1.04443,0.71339 1.35791,1.23487 0.31347,0.52149 0.47021,1.0752 0.47022,1.66113 -1e-5,0.55665 -0.14943,1.06349 -0.44825,1.52051 -0.29883,0.45704 -0.74121,0.82032 -1.32714,1.08984 0.76171,0.17579 1.3535,0.54054 1.77539,1.09424 0.42186,0.55372 0.6328,1.24659 0.63281,2.07861 -1e-5,1.12501 -0.41017,2.07862 -1.23047,2.86084 -0.82032,0.78223 -1.85743,1.17334 -3.11133,1.17334 -1.13086,0 -2.06982,-0.33691 -2.81689,-1.01074 -0.74707,-0.67383 -1.17334,-1.54687 -1.27881,-2.61914 z"
           id="path3057"
           inkscape:connector-curvature="0" />
      </g>
      <g
         transform="scale(0.9841737,1.0160808)"
         style="font-size:18px;font-style:normal;font-variant:normal;font-weight:normal;font-stretch:normal;text-align:start;line-height:125%;letter-spacing:0px;word-spacing:0px;writing-mode:lr-tb;text-anchor:start;fill:#000000;fill-opacity:1;stroke:none;font-family:Arial;-inkscape-font-specification:Arial"
         id="text3073-3">
        <path
           d="m 184.75418,989.58051 0,-3.08497 -5.58984,0 0,-1.45019 5.87988,-8.34961 1.29199,0 0,8.34961 1.74024,0 0,1.45019 -1.74024,0 0,3.08497 z m 0,-4.53516 0,-5.80957 -4.03418,5.80957 z"
           id="path3060"
           inkscape:connector-curvature="0" />
      </g>
      <g
         transform="scale(0.99117946,1.008899)"
         style="font-size:18px;font-style:normal;font-variant:normal;font-weight:normal;font-stretch:normal;text-align:start;line-height:125%;letter-spacing:0px;word-spacing:0px;writing-mode:lr-tb;text-anchor:start;fill:#000000;fill-opacity:1;stroke:none;font-family:Arial;-inkscape-font-specification:Arial"
         id="text3077-1">
        <path
           d="m 146.94051,1027.4668 1.66113,-0.1406 c 0.12304,0.8086 0.40869,1.4165 0.85693,1.8237 0.44824,0.4072 0.98877,0.6108 1.62158,0.6108 0.76172,0 1.40625,-0.2871 1.9336,-0.8613 0.52733,-0.5742 0.79101,-1.3359 0.79101,-2.2851 0,-0.9024 -0.25342,-1.6143 -0.76025,-2.1358 -0.50684,-0.5215 -1.17042,-0.7822 -1.99072,-0.7822 -0.50977,0 -0.96973,0.1157 -1.37989,0.3472 -0.41015,0.2314 -0.73242,0.5317 -0.96679,0.9008 l -1.48535,-0.1933 1.24804,-6.6182 6.40723,0 0,1.5117 -5.1416,0 -0.69434,3.4629 c 0.77344,-0.539 1.58496,-0.8086 2.43457,-0.8086 1.125,0 2.07421,0.3897 2.84766,1.169 0.77343,0.7793 1.16015,1.7812 1.16015,3.0058 0,1.1661 -0.33985,2.1739 -1.01953,3.0235 -0.82618,1.0429 -1.9541,1.5644 -3.38379,1.5644 -1.17187,0 -2.12842,-0.3281 -2.86962,-0.9844 -0.74122,-0.6562 -1.16456,-1.5263 -1.27002,-2.6103 z"
           id="path3063"
           inkscape:connector-curvature="0" />
      </g>
      <g
         transform="scale(0.99117946,1.008899)"
         style="font-size:18px;font-style:normal;font-variant:normal;font-weight:normal;font-stretch:normal;text-align:start;line-height:125%;letter-spacing:0px;word-spacing:0px;writing-mode:lr-tb;text-anchor:start;fill:#000000;fill-opacity:1;stroke:none;font-family:Arial;-inkscape-font-specification:Arial"
         id="text3081-8">
        <path
           d="m 107.57874,1030.1571 -1.57325,0.1231 c -0.14063,-0.6211 -0.33985,-1.0723 -0.59765,-1.3536 -0.42774,-0.4511 -0.95509,-0.6767 -1.58203,-0.6767 -0.50392,0 -0.9463,0.1406 -1.32715,0.4219 -0.49805,0.3632 -0.89063,0.8935 -1.17774,1.5908 -0.28711,0.6972 -0.43652,1.6904 -0.44824,2.9795 0.38086,-0.5801 0.84668,-1.0108 1.39746,-1.292 0.55078,-0.2813 1.12793,-0.4219 1.73145,-0.4219 1.05468,0 1.95263,0.3882 2.69384,1.1645 0.74121,0.7764 1.11181,1.7798 1.11182,3.0103 -1e-5,0.8086 -0.17432,1.5601 -0.52295,2.2544 -0.34864,0.6943 -0.82764,1.2261 -1.43701,1.5952 -0.60938,0.3692 -1.30079,0.5537 -2.07422,0.5537 -1.31836,0 -2.39356,-0.4848 -3.22558,-1.4546 -0.832037,-0.9697 -1.248052,-2.5678 -1.248052,-4.7944 0,-2.4902 0.45996,-4.3008 1.379882,-5.4316 0.80273,-0.9844 1.88379,-1.4766 3.24317,-1.4766 1.01366,0 1.84423,0.2842 2.49169,0.8525 0.64746,0.5684 1.03564,1.3536 1.16456,2.3555 z m -6.45997,5.5547 c 0,0.5449 0.11572,1.0664 0.34717,1.5644 0.23144,0.4981 0.55517,0.8775 0.97119,1.1382 0.41602,0.2608 0.85254,0.3911 1.30957,0.3911 0.66797,0 1.24219,-0.2695 1.72266,-0.8086 0.48046,-0.539 0.7207,-1.2714 0.7207,-2.1972 0,-0.8906 -0.23731,-1.5923 -0.71191,-2.105 -0.47462,-0.5127 -1.07227,-0.769 -1.79297,-0.769 -0.71485,0 -1.32129,0.2563 -1.81934,0.769 -0.49804,0.5127 -0.74707,1.1851 -0.74707,2.0171 z"
           id="path3066"
           inkscape:connector-curvature="0" />
      </g>
      <g
         transform="scale(0.99425782,1.0057753)"
         style="font-size:18px;font-style:normal;font-variant:normal;font-weight:normal;font-stretch:normal;text-align:start;line-height:125%;letter-spacing:0px;word-spacing:0px;writing-mode:lr-tb;text-anchor:start;fill:#000000;fill-opacity:1;stroke:none;font-family:Arial;-inkscape-font-specification:Arial"
         id="text3085-6">
        <path
           d="m 49.770206,1021.1466 0,-1.5205 8.340821,0 0,1.2305 c -0.820321,0.873 -1.633309,2.0332 -2.438965,3.4804 -0.80567,1.4473 -1.428228,2.9356 -1.867676,4.4649 -0.316411,1.0781 -0.518559,2.2588 -0.606445,3.542 l -1.625977,0 c 0.01758,-1.0137 0.216794,-2.2383 0.597657,-3.6739 0.380855,-1.4355 0.927241,-2.8198 1.63916,-4.1528 0.711908,-1.333 1.469232,-2.4565 2.271972,-3.3706 z"
           id="path3069"
           inkscape:connector-curvature="0" />
      </g>
      <g
         transform="scale(0.99425782,1.0057753)"
         style="font-size:18px;font-style:normal;font-variant:normal;font-weight:normal;font-stretch:normal;text-align:start;line-height:125%;letter-spacing:0px;word-spacing:0px;writing-mode:lr-tb;text-anchor:start;fill:#000000;fill-opacity:1;stroke:none;font-family:Arial;-inkscape-font-specification:Arial"
         id="text3089-8">
        <path
           d="m 23.296083,992.22339 c -0.656252,-0.24023 -1.14258,-0.583 -1.458984,-1.02832 -0.316408,-0.44531 -0.474611,-0.97851 -0.474609,-1.59961 -2e-6,-0.93749 0.336912,-1.72558 1.010742,-2.36426 0.673825,-0.63866 1.570309,-0.95799 2.689453,-0.95801 1.124994,2e-5 2.030266,0.32668 2.71582,0.97998 0.685539,0.65334 1.028312,1.44874 1.028321,2.38623 -9e-6,0.59767 -0.156747,1.11769 -0.470215,1.56006 -0.313485,0.44239 -0.789558,0.7837 -1.428223,1.02393 0.791008,0.25782 1.393058,0.67383 1.806152,1.24805 0.413077,0.57422 0.61962,1.25977 0.619629,2.05664 -9e-6,1.10156 -0.389657,2.02734 -1.168945,2.77734 -0.779304,0.75 -1.804694,1.125 -3.076172,1.125 -1.271488,0 -2.296877,-0.37646 -3.076172,-1.12939 -0.779298,-0.75293 -1.168946,-1.6919 -1.168945,-2.8169 -10e-7,-0.83789 0.212401,-1.53954 0.637207,-2.10498 0.424803,-0.56542 1.029783,-0.95068 1.814941,-1.15576 z m -0.316406,-2.68067 c -3e-6,0.60939 0.196286,1.10744 0.588867,1.49415 0.392575,0.38672 0.90234,0.58008 1.529297,0.58007 0.60937,10e-6 1.108881,-0.19188 1.498535,-0.57568 0.389642,-0.38378 0.584466,-0.854 0.584473,-1.41064 -7e-6,-0.58007 -0.20069,-1.06787 -0.602051,-1.46338 -0.401373,-0.3955 -0.900884,-0.59325 -1.498535,-0.59327 -0.60352,2e-5 -1.104496,0.19338 -1.50293,0.58008 -0.39844,0.38673 -0.597659,0.84962 -0.597656,1.38867 z m -0.509765,5.9502 c -3e-6,0.45118 0.106931,0.8877 0.3208,1.30957 0.213865,0.42188 0.531735,0.74854 0.953614,0.97998 0.421871,0.23145 0.875972,0.34717 1.362304,0.34717 0.755854,0 1.379877,-0.24316 1.872071,-0.72949 0.49218,-0.48633 0.738273,-1.10449 0.738281,-1.8545 -8e-6,-0.76171 -0.253425,-1.39159 -0.760254,-1.88964 -0.506842,-0.49804 -1.141119,-0.74707 -1.902832,-0.74707 -0.744145,0 -1.360843,0.2461 -1.850098,0.73828 -0.48926,0.49219 -0.733889,1.10742 -0.733886,1.8457 z"
           id="path3072"
           inkscape:connector-curvature="0" />
      </g>
      <g
         transform="scale(0.99425784,1.0057753)"
         style="font-size:18px;font-style:normal;font-variant:normal;font-weight:normal;font-stretch:normal;text-align:start;line-height:125%;letter-spacing:0px;word-spacing:0px;writing-mode:lr-tb;text-anchor:start;fill:#000000;fill-opacity:1;stroke:none;font-family:Arial;-inkscape-font-specification:Arial"
         id="text3093-8">
        <path
           d="m 9.6400732,952.80652 1.5205078,-0.14063 c 0.128904,0.71485 0.374997,1.2334 0.738281,1.55567 0.363278,0.32226 0.829098,0.4834 1.397461,0.4834 0.486323,0 0.912592,-0.11133 1.278809,-0.33399 0.366205,-0.22265 0.666497,-0.52002 0.900879,-0.89209 0.234368,-0.37207 0.430657,-0.87451 0.588867,-1.50732 0.158196,-0.63281 0.237297,-1.27734 0.237305,-1.9336 -8e-6,-0.0703 -0.0029,-0.17577 -0.0088,-0.3164 -0.316414,0.50391 -0.748542,0.9126 -1.296387,1.22607 -0.547858,0.31348 -1.141119,0.47022 -1.779785,0.47022 -1.06641,0 -1.968753,-0.38672 -2.707032,-1.16016 -0.7382819,-0.77343 -1.1074222,-1.79296 -1.1074214,-3.05859 -8e-7,-1.30663 0.3852527,-2.35839 1.1557614,-3.15528 0.770505,-0.79686 1.735836,-1.1953 2.895996,-1.19531 0.837885,10e-6 1.603998,0.2256 2.29834,0.67676 0.694328,0.45118 1.221672,1.09425 1.582032,1.9292 0.360342,0.83497 0.540518,2.04346 0.540527,3.62549 -9e-6,1.64649 -0.17872,2.95752 -0.536133,3.9331 -0.35743,0.97559 -0.889168,1.71826 -1.595215,2.22803 -0.706061,0.50976 -1.533697,0.76465 -2.48291,0.76465 -1.007816,0 -1.831058,-0.27979 -2.469727,-0.83936 -0.638673,-0.55957 -1.0224616,-1.34619 -1.1513668,-2.35986 z M 16.117612,947.12 c -7e-6,-0.9082 -0.241706,-1.6289 -0.725097,-2.16211 -0.483405,-0.5332 -1.064947,-0.7998 -1.744629,-0.79981 -0.70313,10e-6 -1.315434,0.28712 -1.836914,0.86133 -0.521487,0.57423 -0.782229,1.31837 -0.782227,2.23242 -2e-6,0.82032 0.247556,1.48682 0.742676,1.99951 0.495113,0.5127 1.105953,0.76905 1.832519,0.76905 0.732417,0 1.334467,-0.25635 1.806153,-0.76905 0.471672,-0.51269 0.707512,-1.22313 0.707519,-2.13134 z"
           id="path3075"
           inkscape:connector-curvature="0" />
      </g>
      <g
         transform="scale(0.99425785,1.0057753)"
         style="font-size:18px;font-style:normal;font-variant:normal;font-weight:normal;font-stretch:normal;text-align:start;line-height:125%;letter-spacing:0px;word-spacing:0px;writing-mode:lr-tb;text-anchor:start;fill:#000000;fill-opacity:1;stroke:none;font-family:Arial;-inkscape-font-specification:Arial"
         id="text3097-4">
        <path
           d="m 21.186185,909.81494 -1.582031,0 0,-10.08105 c -0.380864,0.36329 -0.880376,0.72657 -1.498536,1.08984 -0.618167,0.36329 -1.173342,0.63575 -1.665527,0.81738 l 0,-1.52929 c 0.884763,-0.41601 1.6582,-0.91991 2.320313,-1.51172 0.662104,-0.59179 1.130854,-1.16601 1.40625,-1.72266 l 1.019531,0 z"
           id="path3078"
           inkscape:connector-curvature="0" />
        <path
           d="m 25.246732,903.46045 c -1e-6,-1.52343 0.156737,-2.7495 0.470215,-3.67822 0.313475,-0.9287 0.779294,-1.64501 1.397461,-2.14893 0.61816,-0.50389 1.395992,-0.75585 2.333496,-0.75586 0.6914,10e-6 1.297845,0.13917 1.819336,0.41748 0.521477,0.27833 0.95214,0.6797 1.291992,1.2041 0.339835,0.52443 0.606436,1.1631 0.799804,1.91602 0.193351,0.75294 0.29003,1.76807 0.29004,3.04541 -1e-5,1.51172 -0.155283,2.73194 -0.465821,3.66064 -0.310555,0.92872 -0.77491,1.64649 -1.393066,2.15332 -0.618171,0.50684 -1.398932,0.76026 -2.342285,0.76026 -1.242192,0 -2.217777,-0.44531 -2.926758,-1.33594 -0.849611,-1.07226 -1.274415,-2.81835 -1.274414,-5.23828 z m 1.625976,0 c -2e-6,2.11524 0.247556,3.52295 0.742676,4.22314 0.495114,0.7002 1.105953,1.0503 1.83252,1.0503 0.726556,0 1.337396,-0.35156 1.832519,-1.05469 0.49511,-0.70312 0.742668,-2.10937 0.742676,-4.21875 -8e-6,-2.12109 -0.247566,-3.53026 -0.742676,-4.22754 -0.495123,-0.69725 -1.111822,-1.04589 -1.850097,-1.0459 -0.726567,10e-6 -1.306645,0.30763 -1.740235,0.92285 -0.544924,0.78517 -0.817385,2.23536 -0.817383,4.35059 z"
           id="path3080"
           inkscape:connector-curvature="0" />
      </g>
      <g
         transform="scale(0.99425782,1.0057753)"
         style="font-size:18px;font-style:normal;font-variant:normal;font-weight:normal;font-stretch:normal;text-align:start;line-height:125%;letter-spacing:0px;word-spacing:0px;writing-mode:lr-tb;text-anchor:start;fill:#000000;fill-opacity:1;stroke:none;font-family:Arial;-inkscape-font-specification:Arial"
         id="text3101-7">
        <path
           d="m 51.674835,875.70013 -1.582031,0 0,-10.08105 c -0.380864,0.36329 -0.880375,0.72657 -1.498535,1.08984 -0.618167,0.36329 -1.173342,0.63575 -1.665528,0.81739 l 0,-1.5293 c 0.884763,-0.41601 1.6582,-0.91991 2.320313,-1.51172 0.662104,-0.59178 1.130854,-1.166 1.40625,-1.72266 l 1.019531,0 z"
           id="path3083"
           inkscape:connector-curvature="0" />
        <path
           d="m 61.694366,875.70013 -1.582031,0 0,-10.08105 c -0.380864,0.36329 -0.880375,0.72657 -1.498535,1.08984 -0.618167,0.36329 -1.173342,0.63575 -1.665527,0.81739 l 0,-1.5293 c 0.884762,-0.41601 1.658199,-0.91991 2.320312,-1.51172 0.662105,-0.59178 1.130854,-1.166 1.40625,-1.72266 l 1.019531,0 z"
           id="path3085"
           inkscape:connector-curvature="0" />
      </g>
    </g>
  </g>
</svg>
