<?xml version="1.0" encoding="UTF-8" standalone="no"?>
<!-- Created with Inkscape (http://www.inkscape.org/) -->

<svg
   xmlns:dc="http://purl.org/dc/elements/1.1/"
   xmlns:cc="http://creativecommons.org/ns#"
   xmlns:rdf="http://www.w3.org/1999/02/22-rdf-syntax-ns#"
   xmlns:svg="http://www.w3.org/2000/svg"
   xmlns="http://www.w3.org/2000/svg"
   xmlns:sodipodi="http://sodipodi.sourceforge.net/DTD/sodipodi-0.dtd"
   xmlns:inkscape="http://www.inkscape.org/namespaces/inkscape"
   width="200"
   height="200"
   id="svg3533"
   version="1.1"
   inkscape:version="0.48.4 r9939"
   sodipodi:docname="roman-dashes.svg"
   inkscape:export-filename="C:\Users\EC\Pictures\Working Files\Free Graphics\svgpics\clockface\roman-dashes.png"
   inkscape:export-xdpi="1800"
   inkscape:export-ydpi="1800">
  <defs
     id="defs3535" />
  <sodipodi:namedview
     id="base"
     pagecolor="#ffffff"
     bordercolor="#666666"
     borderopacity="1.0"
     inkscape:pageopacity="0.0"
     inkscape:pageshadow="2"
     inkscape:zoom="1.4"
     inkscape:cx="174.56998"
     inkscape:cy="84.712214"
     inkscape:document-units="px"
     inkscape:current-layer="layer1"
     showgrid="false"
     inkscape:window-width="1366"
     inkscape:window-height="705"
     inkscape:window-x="-8"
     inkscape:window-y="-8"
     inkscape:window-maximized="1"
     inkscape:showpageshadow="false" />
  <metadata
     id="metadata3538">
    <rdf:RDF>
      <cc:Work
         rdf:about="">
        <dc:format>image/svg+xml</dc:format>
        <dc:type
           rdf:resource="http://purl.org/dc/dcmitype/StillImage" />
        <dc:title></dc:title>
      </cc:Work>
    </rdf:RDF>
  </metadata>
  <g
     inkscape:label="Layer 1"
     inkscape:groupmode="layer"
     id="layer1"
     transform="translate(0,-852.36218)">
    <g
       id="g3618"
       transform="matrix(0.2521007,0,0,0.2521007,15.006039,678.41748)">
      <path
         id="rect3195"
         d="m 334.92978,707.69397 0,14.67305 c 0.73337,-0.004 1.4625,-0.008 2.1969,-0.008 0.74267,0 1.4877,0.004 2.22931,0.008 l 0,-14.67305 -4.42621,0 z m -35.19102,1.84831 -4.41002,0.47019 1.53217,14.55144 c 1.46846,-0.16148 2.93632,-0.30997 4.41002,-0.45397 l -1.53217,-14.56766 z m 74.80826,0 -1.53217,14.56766 c 1.47206,0.14395 2.94317,0.29257 4.41002,0.45397 l 1.53217,-14.55144 -4.41002,-0.47019 z m -114.02828,5.98272 -4.32896,0.92416 3.03189,14.26772 c 1.44081,-0.31392 2.88185,-0.62734 4.32896,-0.92416 L 260.51874,715.525 z m 153.24021,0 -3.03192,14.27581 c 1.44664,0.29682 2.89676,0.60215 4.33708,0.91607 l 3.03189,-14.26772 -4.33705,-0.92416 z m -191.60902,10.03604 -4.21546,1.37814 4.49918,13.84617 c 1.40309,-0.46507 2.80485,-0.9135 4.21546,-1.36192 l -4.49918,-13.86239 z m 229.98592,0 -4.5073,13.87049 c 1.41061,0.44855 2.82049,0.89674 4.22358,1.36192 l 4.49918,-13.85427 -4.21546,-1.37814 z m -267.09823,13.9921 -4.05333,1.81589 5.92597,13.31114 c 1.34947,-0.61165 2.70324,-1.21219 4.06143,-1.8078 l -5.93407,-13.31923 z m 304.21055,0 -5.93408,13.32735 c 1.35621,0.59486 2.70578,1.19693 4.05333,1.80777 l 5.93408,-13.31923 -4.05333,-1.81589 z m -339.66098,17.80223 -3.83445,2.22122 7.3041,12.65448 c 1.27575,-0.74851 2.54885,-1.49595 3.83445,-2.22932 l -7.3041,-12.64638 z m 375.1114,0 -7.31221,12.6626 c 1.2835,0.73227 2.5608,1.47383 3.83446,2.22122 l 7.31219,-12.6626 -3.83444,-2.22122 z m -408.50273,21.41779 -3.58314,2.61034 8.60116,11.83573 c 1.19027,-0.87736 2.38188,-1.7472 3.58315,-2.61035 l -8.60117,-11.83572 z m 441.89408,0 -8.6093,11.85194 c 1.20152,0.86343 2.39264,1.7327 3.58317,2.61034 l 8.60924,-11.85194 -3.58311,-2.61034 z m -472.869629,24.77395 -3.291304,2.96704 9.817166,10.90345 c 1.091685,-0.99558 2.187527,-1.98459 3.291304,-2.96704 l -9.817166,-10.90345 z m 503.837069,0 -9.82528,10.91157 c 1.10523,0.9838 2.20629,1.97006 3.2994,2.96704 l 9.82527,-10.91157 -3.29939,-2.96704 z m -532.048246,27.88692 -2.967038,3.2913 10.903458,9.81715 c 0.9819,-1.1031 1.963885,-2.20836 2.958931,-3.2994 l -10.895351,-9.80905 z m 560.259416,0 -10.90347,9.81715 c 0.9941,1.09013 1.97795,2.19725 2.95895,3.29942 l 10.91154,-9.82527 -2.96702,-3.2913 z m -585.398169,30.6756 -2.602238,3.59935 11.835724,8.60116 c 0.863568,-1.20184 1.73256,-2.4004 2.610344,-3.59124 l -11.84383,-8.60927 z m 610.545009,0 -11.86003,8.61736 c 0.87793,1.19113 1.74665,2.38915 2.61034,3.59127 l 11.85194,-8.60928 -2.60225,-3.59935 z m -632.343818,33.14002 -2.2131184,3.84256 12.6463894,7.30409 c 0.73283,-1.28454 1.473272,-2.56785 2.221225,-3.84256 l -12.654496,-7.30409 z m 654.142638,0 -12.6707,7.32031 c 0.74659,1.27257 1.48968,2.55208 2.2212,3.83446 l 12.66263,-7.31221 -2.21313,-3.84256 z m -672.3583035,35.24776 -1.7996734,4.03712 13.3111308,5.92598 c 0.591436,-1.34845 1.1924365,-2.6973 1.7996785,-4.03714 l -13.3111359,-5.92596 z m 690.5739535,0 -13.33544,5.93408 c 0.60822,1.34207 1.20733,2.69452 1.79968,4.04523 l 13.33547,-5.94219 -1.79971,-4.03712 z m -705.003803,36.93395 -1.370039,4.21546 13.854295,4.49918 c 0.44796,-1.40892 0.9054377,-2.81398 1.3700206,-4.21546 l -13.8542766,-4.49918 z m 719.433663,0 -13.8786,4.5073 c 0.46429,1.40067 0.92234,2.80729 1.37003,4.21546 l 13.87861,-4.5073 -1.37004,-4.21546 z m -729.923682,38.26344 -0.924159,4.3289 14.275816,3.0319 c 0.296846,-1.447 0.602123,-2.8881 0.916065,-4.3289 l -14.267722,-3.0319 z m 740.413722,0 -14.30015,3.04 c 0.31392,1.4408 0.62734,2.8818 0.92414,4.329 l 14.29205,-3.0401 -0.91604,-4.3289 z m -746.85041,39.1389 -0.462092,4.4101 14.559561,1.5321 c 0.143949,-1.4729 0.30066,-2.9423 0.462093,-4.41 l -14.559562,-1.5322 z m 753.27898,0 -14.57577,1.5322 c 0.16143,1.4677 0.31814,2.9371 0.46209,4.41 l 14.58387,-1.5321 -0.47019,-4.4101 z m -755.581271,39.6011 0,4.4343 14.664935,0 c -0.0044,-0.7416 -0.008,-1.4866 -0.008,-2.2293 0,-0.7346 0.0036,-1.4715 0.008,-2.205 l -14.664935,0 z m 743.202391,0 c 0.004,0.7335 0.008,1.4704 0.008,2.205 0,0.7427 -0.004,1.4877 -0.008,2.2293 l 14.68927,0 0,-4.4343 -14.68927,0 z m -726.802631,38.0851 -14.559561,1.5321 0.462092,4.4101 14.559562,-1.5322 c -0.161511,-1.4677 -0.318093,-2.9371 -0.462093,-4.41 z m 725.067831,0 c -0.14403,1.4729 -0.30061,2.9423 -0.46209,4.41 l 14.57577,1.5322 0.47019,-4.4101 -14.58387,-1.5321 z m -5.699,37.7121 c -0.29677,1.4466 -0.6022,2.8888 -0.91604,4.329 l 14.30015,3.04 0.91604,-4.3289 -14.30015,-3.0401 z m -713.669836,0.01 -14.283935,3.0319 0.924159,4.3289 14.267722,-3.0319 c -0.31389,-1.4402 -0.611151,-2.8824 -0.907946,-4.3289 z m 9.622593,36.9015 -13.862389,4.5073 1.370039,4.2155 13.8542766,-4.4992 c -0.4651874,-1.4031 -0.9133884,-2.813 -1.3619266,-4.2236 z m 694.432743,0 c -0.44722,1.4065 -0.91435,2.8083 -1.37813,4.2073 0,0 0,0.01 0,0.01 l 13.8867,4.5073 1.37004,-4.2155 -13.87861,-4.5073 z m -13.46517,35.6774 c -0.59227,1.3503 -1.19154,2.6954 -1.79965,4.0371 l 13.34353,5.9422 1.79971,-4.0371 -13.34359,-5.9422 z m -667.5105094,0.01 -13.3192375,5.934 1.7996734,4.0372 13.3192426,-5.926 c -0.6092058,-1.3439 -1.2063774,-2.6927 -1.7996785,-4.0452 z m 650.3811494,34.0562 c -0.73274,1.2844 -1.47336,2.568 -2.22123,3.8425 l 12.67882,7.3203 2.21313,-3.8425 -12.67072,-7.3203 z m -633.24367,0.016 -12.6544964,7.3041 2.2131184,3.8425 12.654496,-7.3122 c -0.7461,-1.2714 -1.482063,-2.5531 -2.213118,-3.8344 z m 612.63654,32.0779 c -0.86133,1.1987 -1.72676,2.3955 -2.60225,3.5832 l 11.86815,8.6255 2.60225,-3.5832 -11.86815,-8.6255 z m -592.02941,0.016 -11.851937,8.6093 2.602238,3.5831 11.851937,-8.6092 c -0.875371,-1.1875 -1.741002,-2.3848 -2.602238,-3.5832 z m 568.19583,29.7434 c -0.98095,1.102 -1.97297,2.2013 -2.96704,3.2913 l 10.91968,9.8333 2.96702,-3.2913 -10.91966,-9.8333 z m -544.362249,0.01 -10.911565,9.8253 2.967038,3.2913 10.903458,-9.8172 c -0.995127,-1.091 -1.976954,-2.1963 -2.958931,-3.2994 z m 517.569719,27.1168 c -1.09314,0.997 -2.19414,1.9833 -3.29939,2.967 l 9.83339,10.9197 3.29939,-2.967 -9.83339,-10.9197 z m -490.769101,0.01 -9.825272,10.9116 3.291304,2.967 9.825272,-10.9115 c -1.103813,-0.9824 -2.199584,-1.9715 -3.291304,-2.9671 z m 461.293291,24.1822 c -1.1877,0.8755 -2.37636,1.749 -3.57503,2.6103 l 8.6174,11.8601 3.58311,-2.5942 -8.62548,-11.8762 z m -431.81747,0.016 -8.61738,11.8601 3.58314,2.5941 8.60927,-11.852 c -1.19712,-0.8601 -2.38883,-1.7279 -3.57503,-2.6022 z m 399.98263,20.9801 c -1.2737,0.7473 -2.55094,1.4889 -3.83447,2.2212 l 7.32033,12.6707 3.83444,-2.2212 -7.3203,-12.6707 z m -368.14778,0.01 -7.31221,12.6626 3.83445,2.2212 7.31221,-12.6626 c -1.28443,-0.7327 -2.55985,-1.4735 -3.83445,-2.2212 z m 334.29435,17.5347 c -1.34755,0.6108 -2.69706,1.2129 -4.05333,1.8077 l 5.9422,13.3436 4.05333,-1.8078 -5.9422,-13.3435 z m -300.44094,0.01 -5.93407,13.3355 4.05333,1.8078 5.93407,-13.3355 c -1.35593,-0.5946 -2.70608,-1.1972 -4.05333,-1.8078 z m 264.92565,13.8867 c -1.40143,0.4647 -2.80651,0.9221 -4.21546,1.3701 l 4.5073,13.8786 4.21546,-1.3701 -4.5073,-13.8786 z m -229.40224,0.01 -4.5073,13.8704 4.21546,1.3701 4.5073,-13.8705 c -1.41144,-0.4487 -2.81157,-0.9047 -4.21546,-1.37 z m 192.61424,10.0684 c -1.44034,0.3139 -2.89043,0.6112 -4.33707,0.908 l 3.04001,14.3082 4.33705,-0.9322 -3.03999,-14.2838 z m -155.83434,0.01 -3.03189,14.2758 4.32896,0.9323 3.04001,-14.3002 c -1.44916,-0.2972 -2.89425,-0.5936 -4.33708,-0.9079 z m 118.2032,6.1367 c -1.46716,0.1615 -2.93765,0.3181 -4.41002,0.4621 l 1.53217,14.5839 4.41002,-0.4621 -1.53217,-14.5839 z m -80.56396,0.01 -1.53217,14.5757 4.41002,0.4621 1.53217,-14.5839 c -1.4737,-0.144 -2.94156,-0.2924 -4.41002,-0.4539 z m 38.06887,2.1887 0,14.6974 4.42621,0 0,-14.6974 c -0.74161,0 -1.48664,0.01 -2.22931,0.01 -0.7344,0 -1.46353,0 -2.1969,-0.01 z"
         style="fill:#000000;fill-opacity:1;stroke:none"
         inkscape:connector-curvature="0" />
      <g
         transform="matrix(0.25782816,0,0,0.25782816,-49.612418,1202.0528)"
         id="g4827">
        <rect
           style="fill:#000000;fill-opacity:1;stroke:none"
           id="rect3339"
           width="44.446712"
           height="60.320538"
           x="1478.8633"
           y="-1919.3622" />
        <rect
           y="963.0047"
           x="1478.8633"
           height="60.320538"
           width="44.446712"
           id="rect3341"
           style="fill:#000000;fill-opacity:1;stroke:none" />
        <rect
           style="fill:#000000;fill-opacity:1;stroke:none"
           id="rect3343"
           width="44.446712"
           height="60.320538"
           x="1118.5122"
           y="2486.2673"
           transform="matrix(0.5,-0.8660254,0.8660254,0.5,0,0)" />
        <rect
           transform="matrix(0,-1,1,0,0,0)"
           y="28.069201"
           x="421.75449"
           height="60.320538"
           width="44.446712"
           id="rect3345"
           style="fill:#000000;fill-opacity:1;stroke:none" />
        <rect
           y="-2608.1611"
           x="1047.4586"
           height="60.320538"
           width="44.446712"
           id="rect3347"
           style="fill:#000000;fill-opacity:1;stroke:none"
           transform="matrix(0.8660254,0.5,-0.5,0.8660254,0,0)" />
        <rect
           transform="matrix(0.5,0.8660254,-0.8660254,0.5,0,0)"
           style="fill:#000000;fill-opacity:1;stroke:none"
           id="rect3349"
           width="44.446712"
           height="60.320538"
           x="337.38132"
           y="-2994.2749" />
        <rect
           transform="matrix(0.8660254,-0.5,0.5,0.8660254,0,0)"
           y="1774.3242"
           x="1494.0486"
           height="60.320538"
           width="44.446712"
           id="rect3351"
           style="fill:#000000;fill-opacity:1;stroke:none" />
        <rect
           style="fill:#000000;fill-opacity:1;stroke:none"
           id="rect3355"
           width="44.446712"
           height="60.320538"
           x="421.75449"
           y="2910.4775"
           transform="matrix(0,-1,1,0,0,0)" />
        <rect
           y="-111.42023"
           x="339.73618"
           height="60.320538"
           width="44.446712"
           id="rect3357"
           style="fill:#000000;fill-opacity:1;stroke:none"
           transform="matrix(0.5,0.8660254,-0.8660254,0.5,0,0)" />
        <rect
           transform="matrix(0.8660254,0.5,-0.5,0.8660254,0,0)"
           style="fill:#000000;fill-opacity:1;stroke:none"
           id="rect3359"
           width="44.446712"
           height="60.320538"
           x="1052.042"
           y="273.45325" />
        <rect
           style="fill:#000000;fill-opacity:1;stroke:none"
           id="rect3361"
           width="44.446712"
           height="60.320538"
           x="1503.5715"
           y="-1108.1331"
           transform="matrix(0.8660254,-0.5,0.5,0.8660254,0,0)" />
        <rect
           transform="matrix(0.5,-0.8660254,0.8660254,0.5,0,0)"
           y="-397.32169"
           x="1114.4579"
           height="60.320538"
           width="44.446712"
           id="rect3363"
           style="fill:#000000;fill-opacity:1;stroke:none" />
      </g>
      <path
         inkscape:connector-curvature="0"
         id="path3497"
         d="m 337.14292,721.64375 c -201.58598,0 -365.004196,163.41821 -365.004196,365.00415 0,201.5859 163.418216,365.0041 365.004196,365.0041 201.58592,0 365.00413,-163.4182 365.00413,-365.0041 0,-201.58594 -163.41821,-365.00415 -365.00413,-365.00415 z m 0,3.04455 c 199.06432,0 360.43732,162.05709 360.43732,361.9596 0,199.9025 -161.373,361.9596 -360.43732,361.9596 -199.06438,0 -360.437357,-162.0571 -360.437357,-361.9596 0,-199.90251 161.372977,-361.9596 360.437357,-361.9596 z"
         style="fill:#000000;stroke:none" />
      <path
         style="fill:#000000;stroke:none"
         d="m 337.14292,704.50425 c -211.05185,0 -382.143673,171.09185 -382.143673,382.14365 0,211.0518 171.091823,382.1437 382.143673,382.1437 211.05178,0 382.14363,-171.0919 382.14363,-382.1437 0,-211.0518 -171.09185,-382.14365 -382.14363,-382.14365 z m 0,3.18751 c 208.41178,0 377.36236,169.66682 377.36236,378.95614 0,209.2893 -168.95058,378.9561 -377.36236,378.9561 -208.41184,0 -377.362404,-169.6668 -377.362404,-378.9561 0,-209.28932 168.950564,-378.95614 377.362404,-378.95614 z"
         id="path3505"
         inkscape:connector-curvature="0" />
    </g>
  </g>
</svg>
